<svg xmlns="http://www.w3.org/2000/svg" xmlns:xlink="http://www.w3.org/1999/xlink" width="120" height="120"><path fill="none" stroke="#00567E" d="M59.956 119.912c30.505 0 59.956-22.589 59.956-59.956C119.912 26.843 93.069 0 59.956 0S0 26.843 0 59.956c0 33.112 26.843 59.956 59.956 59.956z"/><path fill="#00567E" d="M59.956 116.902c31.45 0 56.947-25.496 56.947-56.947 0-31.45-25.497-56.945-56.947-56.945C28.505 3.01 3.01 28.505 3.01 59.956c0 31.45 25.495 56.946 56.946 56.946"/><text transform="translate(19.455 89.924)" fill="#FFF" font-family="'Quicksand-Bold'" font-size="9.505">GRAPHIC</text><text transform="translate(62.477 89.924)" fill="#FFF" font-family="'Quicksand-Regular'" font-size="9.505">DESIGN</text><g opacity=".25"><text transform="translate(24.266 52.16)"><tspan x="0" y="0" fill="#FFF" font-family="'NexaRustScriptL-0'" font-size="26.403" letter-spacing="-1">V</tspan><tspan x="18.852" y="0" fill="#FFF" font-family="'NexaRustScriptL-0'" font-size="26.403">e</tspan><tspan x="28.383" y="0" fill="#FFF" font-family="'NexaRustScriptL-0'" font-size="26.403">r</tspan><tspan x="38.231" y="0" fill="#FFF" font-family="'NexaRustScriptL-0'" font-size="26.403">e</tspan><tspan x="48.185" y="0" fill="#FFF" font-family="'NexaRustScriptL-0'" font-size="26.403">n</tspan><tspan x="60.198" y="0" fill="#FFF" font-family="'NexaRustScriptL-0'" font-size="26.403">a</tspan></text><text transform="translate(17.744 71.677)"><tspan x="0" y="0" fill="#FFF" font-family="'NexaRustScriptL-0'" font-size="26.403" letter-spacing="-1">C</tspan><tspan x="13.677" y="0" fill="#FFF" font-family="'NexaRustScriptL-0'" font-size="26.403">a</tspan><tspan x="25.426" y="0" fill="#FFF" font-family="'NexaRustScriptL-0'" font-size="26.403" letter-spacing="-1">r</tspan><tspan x="34.033" y="0" fill="#FFF" font-family="'NexaRustScriptL-0'" font-size="26.403">p</tspan><tspan x="47.525" y="0" fill="#FFF" font-family="'NexaRustScriptL-0'" font-size="26.403">e</tspan><tspan x="57.954" y="0" fill="#FFF" font-family="'NexaRustScriptL-0'" font-size="26.403">l</tspan><tspan x="65.717" y="0" fill="#FFF" font-family="'NexaRustScriptL-0'" font-size="26.403">l</tspan><tspan x="73.215" y="0" fill="#FFF" font-family="'NexaRustScriptL-0'" font-size="26.403">a</tspan></text></g><path fill="none" stroke="#FFF" stroke-linecap="round" d="M18.419 76.269h25.938m10.255-.238h47.744"/><text transform="translate(23.118 51.587)"><tspan x="0" y="0" fill="#FFF" font-family="'NexaRustScriptL-0'" font-size="26.403" letter-spacing="-1">V</tspan><tspan x="18.852" y="0" fill="#FFF" font-family="'NexaRustScriptL-0'" font-size="26.403">e</tspan><tspan x="28.383" y="0" fill="#FFF" font-family="'NexaRustScriptL-0'" font-size="26.403">r</tspan><tspan x="38.231" y="0" fill="#FFF" font-family="'NexaRustScriptL-0'" font-size="26.403">e</tspan><tspan x="48.185" y="0" fill="#FFF" font-family="'NexaRustScriptL-0'" font-size="26.403">n</tspan><tspan x="60.198" y="0" fill="#FFF" font-family="'NexaRustScriptL-0'" font-size="26.403">a</tspan></text><text transform="translate(16.596 71.103)"><tspan x="0" y="0" fill="#FFF" font-family="'NexaRustScriptL-0'" font-size="26.403" letter-spacing="-1">C</tspan><tspan x="13.677" y="0" fill="#FFF" font-family="'NexaRustScriptL-0'" font-size="26.403">a</tspan><tspan x="25.426" y="0" fill="#FFF" font-family="'NexaRustScriptL-0'" font-size="26.403" letter-spacing="-1">r</tspan><tspan x="34.033" y="0" fill="#FFF" font-family="'NexaRustScriptL-0'" font-size="26.403">p</tspan><tspan x="47.525" y="0" fill="#FFF" font-family="'NexaRustScriptL-0'" font-size="26.403">e</tspan><tspan x="57.954" y="0" fill="#FFF" font-family="'NexaRustScriptL-0'" font-size="26.403">l</tspan><tspan x="65.717" y="0" fill="#FFF" font-family="'NexaRustScriptL-0'" font-size="26.403">l</tspan><tspan x="73.215" y="0" fill="#FFF" font-family="'NexaRustScriptL-0'" font-size="26.403">a</tspan></text><g opacity=".2"><defs><path id="a" d="M18.132 75.98h27.66v1.722h-27.66z"/></defs><clipPath id="b"><use xlink:href="#a" overflow="visible"/></clipPath><path clip-path="url(#b)" fill="none" stroke="#FFF" stroke-linecap="round" d="M18.994 76.842h25.938"/></g><g opacity=".2"><defs><path id="c" d="M54.325 75.693h49.467v1.722H54.325z"/></defs><clipPath id="d"><use xlink:href="#c" overflow="visible"/></clipPath><path clip-path="url(#d)" fill="none" stroke="#FFF" stroke-linecap="round" d="M55.186 76.555h47.745"/></g></svg>