<?xml version="1.0" encoding="utf-8"?>
<!-- Generator: Adobe Illustrator 16.0.0, SVG Export Plug-In . SVG Version: 6.00 Build 0)  -->
<!DOCTYPE svg PUBLIC "-//W3C//DTD SVG 1.1//EN" "http://www.w3.org/Graphics/SVG/1.1/DTD/svg11.dtd">
<svg version="1.1" id="Layer_1" xmlns="http://www.w3.org/2000/svg" xmlns:xlink="http://www.w3.org/1999/xlink" x="0px" y="0px"
	 width="120px" height="120px" viewBox="0 0 120 120" enable-background="new 0 0 120 120" xml:space="preserve">
<g>
	<path fill="none" stroke="#00567E" d="M59.956,119.912c30.505,0,59.956-22.589,59.956-59.956C119.912,26.843,93.069,0,59.956,0
		S0,26.843,0,59.956C0,93.068,26.843,119.912,59.956,119.912z"/>
	<path fill="#00567E" d="M59.956,116.902c31.45,0,56.947-25.496,56.947-56.947c0-31.45-25.497-56.945-56.947-56.945
		C28.505,3.01,3.01,28.505,3.01,59.956C3.01,91.406,28.505,116.902,59.956,116.902"/>
	<text transform="matrix(1 0 0 1 19.4551 89.9238)" fill="#FFFFFF" font-family="'Quicksand-Bold'" font-size="9.5052">GRAPHIC </text>
	<text transform="matrix(1 0 0 1 62.4766 89.9238)" fill="#FFFFFF" font-family="'Quicksand-Regular'" font-size="9.5052">DESIGN</text>
	<g opacity="0.25">
		<g>
			<text transform="matrix(1 0 0 1 24.2656 52.1602)"><tspan x="0" y="0" fill="#FFFFFF" font-family="'NexaRustScriptL-0'" font-size="26.4032" letter-spacing="-1">V</tspan><tspan x="18.852" y="0" fill="#FFFFFF" font-family="'NexaRustScriptL-0'" font-size="26.4032">e</tspan><tspan x="28.383" y="0" fill="#FFFFFF" font-family="'NexaRustScriptL-0'" font-size="26.4032">r</tspan><tspan x="38.231" y="0" fill="#FFFFFF" font-family="'NexaRustScriptL-0'" font-size="26.4032">e</tspan><tspan x="48.185" y="0" fill="#FFFFFF" font-family="'NexaRustScriptL-0'" font-size="26.4032">n</tspan><tspan x="60.198" y="0" fill="#FFFFFF" font-family="'NexaRustScriptL-0'" font-size="26.4032">a</tspan></text>
			<text transform="matrix(1 0 0 1 17.7441 71.6768)"><tspan x="0" y="0" fill="#FFFFFF" font-family="'NexaRustScriptL-0'" font-size="26.4032" letter-spacing="-1">C</tspan><tspan x="13.677" y="0" fill="#FFFFFF" font-family="'NexaRustScriptL-0'" font-size="26.4032">a</tspan><tspan x="25.426" y="0" fill="#FFFFFF" font-family="'NexaRustScriptL-0'" font-size="26.4032" letter-spacing="-1">r</tspan><tspan x="34.033" y="0" fill="#FFFFFF" font-family="'NexaRustScriptL-0'" font-size="26.4032">p</tspan><tspan x="47.525" y="0" fill="#FFFFFF" font-family="'NexaRustScriptL-0'" font-size="26.4032">e</tspan><tspan x="57.954" y="0" fill="#FFFFFF" font-family="'NexaRustScriptL-0'" font-size="26.4032">l</tspan><tspan x="65.717" y="0" fill="#FFFFFF" font-family="'NexaRustScriptL-0'" font-size="26.4032">l</tspan><tspan x="73.215" y="0" fill="#FFFFFF" font-family="'NexaRustScriptL-0'" font-size="26.4032">a</tspan></text>
		</g>
	</g>
	<line fill="none" stroke="#FFFFFF" stroke-linecap="round" x1="18.419" y1="76.269" x2="44.357" y2="76.269"/>
	<line fill="none" stroke="#FFFFFF" stroke-linecap="round" x1="54.612" y1="76.031" x2="102.356" y2="76.031"/>
	<text transform="matrix(1 0 0 1 23.1182 51.5869)"><tspan x="0" y="0" fill="#FFFFFF" font-family="'NexaRustScriptL-0'" font-size="26.4032" letter-spacing="-1">V</tspan><tspan x="18.852" y="0" fill="#FFFFFF" font-family="'NexaRustScriptL-0'" font-size="26.4032">e</tspan><tspan x="28.383" y="0" fill="#FFFFFF" font-family="'NexaRustScriptL-0'" font-size="26.4032">r</tspan><tspan x="38.231" y="0" fill="#FFFFFF" font-family="'NexaRustScriptL-0'" font-size="26.4032">e</tspan><tspan x="48.185" y="0" fill="#FFFFFF" font-family="'NexaRustScriptL-0'" font-size="26.4032">n</tspan><tspan x="60.198" y="0" fill="#FFFFFF" font-family="'NexaRustScriptL-0'" font-size="26.4032">a</tspan></text>
	<text transform="matrix(1 0 0 1 16.5957 71.1025)"><tspan x="0" y="0" fill="#FFFFFF" font-family="'NexaRustScriptL-0'" font-size="26.4032" letter-spacing="-1">C</tspan><tspan x="13.677" y="0" fill="#FFFFFF" font-family="'NexaRustScriptL-0'" font-size="26.4032">a</tspan><tspan x="25.426" y="0" fill="#FFFFFF" font-family="'NexaRustScriptL-0'" font-size="26.4032" letter-spacing="-1">r</tspan><tspan x="34.033" y="0" fill="#FFFFFF" font-family="'NexaRustScriptL-0'" font-size="26.4032">p</tspan><tspan x="47.525" y="0" fill="#FFFFFF" font-family="'NexaRustScriptL-0'" font-size="26.4032">e</tspan><tspan x="57.954" y="0" fill="#FFFFFF" font-family="'NexaRustScriptL-0'" font-size="26.4032">l</tspan><tspan x="65.717" y="0" fill="#FFFFFF" font-family="'NexaRustScriptL-0'" font-size="26.4032">l</tspan><tspan x="73.215" y="0" fill="#FFFFFF" font-family="'NexaRustScriptL-0'" font-size="26.4032">a</tspan></text>
	<g opacity="0.2">
		<g>
			<defs>
				<rect id="SVGID_1_" x="18.132" y="75.98" width="27.66" height="1.722"/>
			</defs>
			<clipPath id="SVGID_2_">
				<use xlink:href="#SVGID_1_"  overflow="visible"/>
			</clipPath>
			
				<line clip-path="url(#SVGID_2_)" fill="none" stroke="#FFFFFF" stroke-linecap="round" x1="18.994" y1="76.842" x2="44.932" y2="76.842"/>
		</g>
	</g>
	<g opacity="0.2">
		<g>
			<defs>
				<rect id="SVGID_3_" x="54.325" y="75.693" width="49.467" height="1.722"/>
			</defs>
			<clipPath id="SVGID_4_">
				<use xlink:href="#SVGID_3_"  overflow="visible"/>
			</clipPath>
			
				<line clip-path="url(#SVGID_4_)" fill="none" stroke="#FFFFFF" stroke-linecap="round" x1="55.186" y1="76.555" x2="102.931" y2="76.555"/>
		</g>
	</g>
</g>
</svg>
